<svg id="SvgjsSvg1001" width="288" height="288" xmlns="http://www.w3.org/2000/svg" version="1.1" xmlns:xlink="http://www.w3.org/1999/xlink" xmlns:svgjs="http://svgjs.com/svgjs"><defs id="SvgjsDefs1002"></defs><g id="SvgjsG1008"><svg xmlns="http://www.w3.org/2000/svg" enable-background="new 0 0 294.363 192.615" viewBox="0 0 294.363 192.615" width="288" height="288"><line x1="43.985" x2="43.985" y1="165.861" y2="114.958" fill="#fff" stroke="#000000" stroke-linecap="square" stroke-miterlimit="10" stroke-width=".084" class="colorStrokefff svgStroke"></line><polyline fill="#000000" points="45.082 165.438 42.972 166.62 42.972 114.282 45.082 115.464 45.082 165.438" class="colorfff svgShape"></polyline><line x1="50.147" x2="50.147" y1="162.316" y2="118.503" fill="#fff" stroke="#000000" stroke-linecap="square" stroke-miterlimit="10" stroke-width=".084" class="colorStrokefff svgStroke"></line><polyline fill="#000000" points="51.245 162.484 49.05 162.484 49.05 118.419 51.245 118.419 51.245 162.484" class="colorfff svgShape"></polyline><line x1="88.219" x2="44.154" y1="191.523" y2="166.114" fill="#fff" stroke="#000000" stroke-linecap="square" stroke-miterlimit="10" stroke-width=".084" class="colorStrokefff svgStroke"></line><polyline fill="#000000" points="88.304 190.342 88.304 192.874 42.972 166.62 45.082 165.438 88.304 190.342" class="colorfff svgShape"></polyline><line x1="132.538" x2="88.473" y1="166.114" y2="191.523" fill="#fff" stroke="#000000" stroke-linecap="square" stroke-miterlimit="10" stroke-width=".084" class="colorStrokefff svgStroke"></line><polyline fill="#000000" points="131.525 165.438 133.72 166.62 88.304 192.874 88.304 190.342 131.525 165.438" class="colorfff svgShape"></polyline><line x1="126.376" x2="88.473" y1="162.568" y2="184.432" fill="#fff" stroke="#000000" stroke-linecap="square" stroke-miterlimit="10" stroke-width=".084" class="colorStrokefff svgStroke"></line><polyline fill="#000000" points="125.954 161.556 127.051 163.412 88.81 185.446 87.797 183.588 125.954 161.556" class="colorfff svgShape"></polyline><line x1="132.623" x2="132.623" y1="114.958" y2="165.861" fill="#fff" stroke="#000000" stroke-linecap="square" stroke-miterlimit="10" stroke-width=".084" class="colorStrokefff svgStroke"></line><polyline fill="#000000" points="131.525 115.464 132.623 114.873 133.72 115.464 133.72 166.62 131.525 165.438 131.525 115.464" class="colorfff svgShape"></polyline><line x1="88.473" x2="132.538" y1="89.379" y2="114.704" fill="#fff" stroke="#000000" stroke-linecap="square" stroke-miterlimit="10" stroke-width=".084" class="colorStrokefff svgStroke"></line><polyline fill="#000000" points="88.304 90.476 88.304 89.295 89.401 88.62 132.623 113.607 132.623 114.873 131.525 115.464 88.304 90.476" class="colorfff svgShape"></polyline><line x1="88.473" x2="126.376" y1="96.47" y2="118.249" fill="#fff" stroke="#000000" stroke-linecap="square" stroke-miterlimit="10" stroke-width=".084" class="colorStrokefff svgStroke"></line><polyline fill="#000000" points="87.797 97.315 88.81 95.457 127.051 117.49 125.954 119.347 87.797 97.315" class="colorfff svgShape"></polyline><line x1="44.154" x2="88.219" y1="114.704" y2="89.379" fill="#fff" stroke="#000000" stroke-linecap="square" stroke-miterlimit="10" stroke-width=".084" class="colorStrokefff svgStroke"></line><polyline fill="#000000" points="45.082 115.464 42.972 114.282 87.206 88.62 88.304 89.295 88.304 90.476 45.082 115.464" class="colorfff svgShape"></polyline><line x1="88.304" x2="88.304" y1="38.223" y2="89.125" fill="#fff" stroke="#000000" stroke-linecap="square" stroke-miterlimit="10" stroke-width=".084" class="colorStrokefff svgStroke"></line><polyline fill="#000000" points="87.206 37.547 89.401 38.729 89.401 88.62 88.304 89.295 87.206 88.62 87.206 37.547" class="colorfff svgShape"></polyline><path fill="#000000" d="M166.062,89.74c0-3.762,1.01-6.706,3.029-8.834s4.627-3.192,7.821-3.192c2.092,0,3.978,0.5,5.657,1.5   c1.68,0.999,2.961,2.394,3.842,4.181c0.881,1.788,1.321,3.815,1.321,6.083c0,2.298-0.464,4.354-1.391,6.167   c-0.928,1.813-2.242,3.187-3.942,4.119s-3.534,1.399-5.502,1.399c-2.134,0-4.04-0.516-5.72-1.546s-2.952-2.438-3.817-4.22   C166.495,93.614,166.062,91.728,166.062,89.74z M169.154,89.786c0,2.731,0.733,4.882,2.202,6.453   c1.469,1.572,3.311,2.357,5.526,2.357c2.257,0,4.113-0.793,5.572-2.38c1.458-1.587,2.187-3.839,2.187-6.755   c0-1.845-0.312-3.455-0.935-4.831c-0.624-1.375-1.536-2.441-2.736-3.199s-2.548-1.136-4.042-1.136   c-2.123,0-3.949,0.729-5.479,2.187C169.919,83.941,169.154,86.376,169.154,89.786z" class="colorfff svgShape"></path><line x1="165.63" x2="132.792" y1="95.879" y2="114.704" fill="#fff" stroke="#000000" stroke-linecap="square" stroke-miterlimit="10" stroke-width=".084" class="colorStrokefff svgStroke"></line><polyline fill="#000000" points="165.292 94.781 166.305 96.639 133.72 115.464 132.623 114.873 132.623 113.607 165.292 94.781" class="colorfff svgShape"></polyline><path fill="#000000" d="M33.191,13.004c0-3.761,1.01-6.706,3.03-8.833c2.02-2.128,4.626-3.192,7.821-3.192c2.092,0,3.978,0.5,5.657,1.499   c1.68,1,2.961,2.394,3.842,4.181c0.881,1.788,1.321,3.816,1.321,6.083c0,2.298-0.464,4.354-1.391,6.167   c-0.928,1.814-2.241,3.187-3.942,4.12c-1.7,0.933-3.534,1.398-5.502,1.398c-2.133,0-4.04-0.515-5.719-1.545   s-2.952-2.437-3.818-4.22S33.191,14.994,33.191,13.004z M36.282,13.051c0,2.731,0.734,4.882,2.203,6.454   c1.469,1.571,3.311,2.357,5.526,2.357c2.257,0,4.114-0.793,5.573-2.38c1.458-1.586,2.188-3.838,2.188-6.754   c0-1.845-0.313-3.455-0.936-4.831C50.213,6.52,49.3,5.454,48.1,4.696c-1.201-0.757-2.548-1.136-4.042-1.136   c-2.123,0-3.949,0.729-5.479,2.188S36.282,9.64,36.282,13.051z" class="colorfff svgShape"></path><line x1="53.524" x2="88.219" y1="21.677" y2="41.514" fill="#fff" stroke="#000000" stroke-linecap="square" stroke-miterlimit="10" stroke-width=".084" class="colorStrokefff svgStroke"></line><polyline fill="#000000" points="52.933 22.437 53.946 20.579 88.81 40.755 87.797 42.612 52.933 22.437" class="colorfff svgShape"></polyline><line x1="56.648" x2="91.259" y1="16.358" y2="36.197" fill="#fff" stroke="#000000" stroke-linecap="square" stroke-miterlimit="10" stroke-width=".084" class="colorStrokefff svgStroke"></line><polyline fill="#000000" points="55.972 17.118 57.07 15.261 91.934 35.437 90.836 37.293 55.972 17.118" class="colorfff svgShape"></polyline><path fill="#000000" d="M121.744 13.004c0-3.761 1.01-6.706 3.029-8.833s4.627-3.192 7.821-3.192c2.092 0 3.978.5 5.657 1.499 1.68 1 2.961 2.394 3.842 4.181.881 1.788 1.321 3.816 1.321 6.083 0 2.298-.464 4.354-1.391 6.167-.928 1.814-2.242 3.187-3.942 4.12s-3.534 1.398-5.502 1.398c-2.134 0-4.04-.515-5.72-1.545s-2.952-2.437-3.817-4.22C122.176 16.879 121.744 14.994 121.744 13.004zM124.836 13.051c0 2.731.733 4.882 2.202 6.454s3.311 2.357 5.526 2.357c2.257 0 4.113-.793 5.572-2.38 1.458-1.586 2.187-3.838 2.187-6.754 0-1.845-.312-3.455-.935-4.831-.624-1.376-1.536-2.442-2.736-3.2s-2.548-1.136-4.042-1.136c-2.123 0-3.949.729-5.479 2.188S124.836 9.64 124.836 13.051zM147.372 24.041V1.381h2.998v9.305h11.779V1.381h2.998v22.66h-2.998V13.36H150.37v10.681H147.372z" class="colorfff svgShape"></path><line x1="121.311" x2="88.473" y1="19.144" y2="37.969" fill="#fff" stroke="#000000" stroke-linecap="square" stroke-miterlimit="10" stroke-width=".084" class="colorStrokefff svgStroke"></line><polyline fill="#000000" points="120.973 18.046 121.986 19.904 89.401 38.729 87.206 37.547 120.973 18.046" class="colorfff svgShape"></polyline><line x1="221.092" x2="188" y1="114.704" y2="95.71" fill="#fff" stroke="#000000" stroke-linecap="square" stroke-miterlimit="10" stroke-width=".084" class="colorStrokefff svgStroke"></line><polyline fill="#000000" points="221.176 113.607 221.176 116.054 187.325 96.554 188.422 94.697 221.176 113.607" class="colorfff svgShape"></polyline><line x1="265.411" x2="221.345" y1="89.379" y2="114.704" fill="#fff" stroke="#000000" stroke-linecap="square" stroke-miterlimit="10" stroke-width=".084" class="colorStrokefff svgStroke"></line><polyline fill="#000000" points="264.989 88.366 265.495 89.295 266.002 90.223 221.176 116.054 221.176 113.607 264.989 88.366" class="colorfff svgShape"></polyline><path fill="#000000" d="M210.382,166.475c0-3.762,1.01-6.706,3.029-8.834s4.627-3.192,7.821-3.192c2.092,0,3.978,0.5,5.657,1.5   c1.68,0.999,2.961,2.394,3.842,4.181c0.881,1.788,1.321,3.815,1.321,6.083c0,2.298-0.464,4.354-1.391,6.167   c-0.928,1.813-2.242,3.187-3.942,4.119s-3.534,1.399-5.502,1.399c-2.134,0-4.04-0.516-5.72-1.546s-2.952-2.438-3.817-4.22   C210.814,170.349,210.382,168.463,210.382,166.475z M213.473,166.52c0,2.731,0.733,4.882,2.202,6.453   c1.469,1.572,3.311,2.357,5.526,2.357c2.257,0,4.113-0.793,5.572-2.38c1.458-1.587,2.187-3.839,2.187-6.755   c0-1.845-0.312-3.455-0.935-4.831c-0.624-1.375-1.536-2.441-2.736-3.199s-2.548-1.136-4.042-1.136   c-2.123,0-3.949,0.729-5.479,2.187C214.238,160.676,213.473,163.11,213.473,166.52z" class="colorfff svgShape"></path><line x1="224.3" x2="224.3" y1="152.86" y2="113.184" fill="#fff" stroke="#000000" stroke-linecap="square" stroke-miterlimit="10" stroke-width=".084" class="colorStrokefff svgStroke"></line><polyline fill="#000000" points="225.313 153.03 223.202 153.03 223.202 113.1 225.313 113.1 225.313 153.03" class="colorfff svgShape"></polyline><line x1="218.137" x2="218.137" y1="152.86" y2="113.184" fill="#fff" stroke="#000000" stroke-linecap="square" stroke-miterlimit="10" stroke-width=".084" class="colorStrokefff svgStroke"></line><polyline fill="#000000" points="219.235 153.03 217.04 153.03 217.04 113.1 219.235 113.1 219.235 153.03" class="colorfff svgShape"></polyline></svg></g></svg>