<svg id="SvgjsSvg1001" width="288" height="288" xmlns="http://www.w3.org/2000/svg" version="1.1" xmlns:xlink="http://www.w3.org/1999/xlink" xmlns:svgjs="http://svgjs.com/svgjs"><defs id="SvgjsDefs1002"></defs><g id="SvgjsG1008"><svg xmlns="http://www.w3.org/2000/svg" enable-background="new 0 0 294.363 192.615" viewBox="0 0 294.363 192.615" width="288" height="288"><path fill="#000000" d="M143.555,0c-3.839,0-6.966,1.308-9.394,3.867c-2.431,2.558-3.687,6.063-3.687,10.582c0,2.394,0.563,4.699,1.605,6.839  c1.039,2.147,2.558,3.817,4.578,5.054c2.02,1.24,4.334,1.844,6.898,1.844c2.366,0,4.556-0.545,6.601-1.664  c2.045-1.12,3.582-2.756,4.696-4.937c1.117-2.178,1.726-4.668,1.726-7.433c0-2.722-0.544-5.163-1.605-7.313  c-1.061-2.15-2.617-3.851-4.637-5.054C148.315,0.585,146.069,0,143.555,0 M143.555,3.093c1.797,0,3.434,0.458,4.878,1.367  c1.441,0.909,2.518,2.212,3.27,3.867c0.749,1.652,1.129,3.61,1.129,5.825c0,3.508-0.863,6.183-2.617,8.089  c-1.751,1.909-4.006,2.855-6.719,2.855c-2.663,0-4.897-0.906-6.66-2.796c-1.766-1.887-2.617-4.507-2.617-7.789  c0-4.102,0.894-6.988,2.734-8.742S141.003,3.093,143.555,3.093 M137.43,34.373v36.452L96.041,94.733L48.587,67.317L0,95.385v56.138  l48.587,28.069l47.455-27.416l29.854,17.245l1.126-2.02l-29.792-17.187V96.694l46.267-26.701l29.792,17.128l1.132-1.961  l-24.799-14.334V34.373h-2.32v35.143l-3.805-2.199l-3.746,2.14V34.373H137.43z M239.534,54.829c-2.404,0-4.6,0.569-6.601,1.664  c-2.001,1.098-3.554,2.704-4.64,4.816c-1.083,2.116-1.602,4.538-1.602,7.374c0,2.605,0.467,5.048,1.426,7.316  c0.959,2.267,2.382,4.037,4.222,5.231c1.841,1.197,4.198,1.785,7.136,1.785c2.837,0,5.231-0.764,7.195-2.317  c1.961-1.556,3.347-3.82,4.105-6.781l-3.628-0.953c-0.498,2.292-1.457,4.071-2.855,5.234c-1.401,1.163-3.096,1.726-5.113,1.726  c-1.661,0-3.214-0.455-4.64-1.309c-1.423-0.857-2.478-2.137-3.152-3.867c-0.674-1.726-1.011-3.749-1.011-6.066  c0-1.797,0.322-3.542,0.894-5.234c0.569-1.689,1.506-3.038,2.914-4.043c1.404-1.002,3.199-1.485,5.293-1.485  c1.819,0,3.316,0.464,4.519,1.367c1.2,0.903,2.103,2.36,2.734,4.34l3.57-0.891c-0.733-2.515-2.008-4.442-3.867-5.828  C244.573,55.522,242.259,54.829,239.534,54.829 M255.353,55.305v27.237h3.567V69.696h14.155v12.847h3.625V55.305h-3.625v11.179  H258.92V55.305H255.353z M48.587,69.992l46.326,26.701v53.521l-46.326,26.76l-46.325-26.76V96.694L48.587,69.992z M287.406,70.648  c-1.618,0-3.016,0.442-4.105,1.367c-1.089,0.922-1.775,2.243-2.082,3.925l2.496,0.473c0.189-1.225,0.6-2.181,1.253-2.793  c0.647-0.612,1.519-0.891,2.496-0.894c0.984,0.003,1.757,0.291,2.379,0.894c0.622,0.603,0.95,1.339,0.95,2.261  c0,1.16-0.452,2.057-1.305,2.614c-0.857,0.56-1.788,0.832-2.855,0.832c-0.102,0-0.251-0.04-0.418-0.059l-0.297,2.199  c0.705-0.182,1.309-0.238,1.785-0.238c1.16,0,2.1,0.325,2.852,1.073c0.752,0.749,1.132,1.701,1.132,2.855  c0,1.206-0.377,2.215-1.191,3.032c-0.81,0.817-1.853,1.25-3.031,1.25c-0.993,0-1.806-0.325-2.496-0.953  c-0.693-0.628-1.2-1.612-1.488-3.032l-2.499,0.294c0.17,1.701,0.838,3.096,2.023,4.167c1.185,1.067,2.666,1.602,4.461,1.602  c1.989,0,3.635-0.6,4.934-1.84c1.302-1.24,1.964-2.797,1.964-4.581c0-1.318-0.343-2.391-1.012-3.27  c-0.668-0.878-1.587-1.448-2.796-1.726c0.931-0.427,1.609-0.999,2.082-1.723c0.476-0.727,0.715-1.556,0.715-2.438  c0-0.931-0.217-1.791-0.715-2.617c-0.495-0.829-1.259-1.485-2.199-1.961C289.497,70.883,288.52,70.648,287.406,70.648   M221.574,77.07l-13.796,7.969l1.132,1.961l13.855-7.968L221.574,77.07z M49.181,79.031l-1.129,2.023l37.584,21.644l1.129-1.961  L49.181,79.031z M191.009,82.242c-3.842,0.003-6.966,1.25-9.394,3.805c-2.428,2.561-3.628,6.125-3.628,10.647  c0,2.391,0.504,4.634,1.547,6.781c1.039,2.141,2.558,3.814,4.578,5.055c2.02,1.237,4.334,1.902,6.898,1.902  c2.366,0,4.557-0.603,6.601-1.726c2.042-1.12,3.641-2.753,4.758-4.934c1.114-2.181,1.664-4.671,1.664-7.433  c0-2.728-0.548-5.166-1.605-7.316c-1.058-2.15-2.62-3.792-4.637-4.996C195.77,82.827,193.524,82.245,191.009,82.242 M191.009,85.335  c1.797,0,3.434,0.458,4.875,1.367c1.445,0.912,2.521,2.153,3.273,3.805c0.749,1.655,1.129,3.61,1.129,5.831  c0,3.505-0.863,6.236-2.617,8.145c-1.754,1.909-4.006,2.855-6.719,2.855c-2.663,0-4.838-0.965-6.601-2.855  c-1.766-1.89-2.676-4.445-2.676-7.73c0-4.099,0.894-7.047,2.734-8.801C186.248,86.198,188.457,85.335,191.009,85.335 M9.874,145.16  h2.258v-43.409H9.874V145.16z M85.635,144.148l-37.584,21.706l1.129,2.02l37.584-21.706L85.635,144.148z M143.555,164.425  c-3.839,0-6.966,1.25-9.394,3.808c-2.431,2.555-3.687,6.122-3.687,10.644c0,2.391,0.563,4.637,1.605,6.777  c1.039,2.147,2.558,3.876,4.578,5.116c2.02,1.237,4.334,1.844,6.898,1.844c2.366,0,4.556-0.545,6.601-1.664  c2.045-1.123,3.582-2.818,4.696-4.996c1.117-2.181,1.726-4.612,1.726-7.378c0-2.722-0.544-5.163-1.605-7.312  c-1.061-2.15-2.617-3.851-4.637-5.055C148.315,165.01,146.069,164.425,143.555,164.425 M161.276,164.902v27.237h3.628v-12.847  h14.152v12.847h3.625v-27.237h-3.625v11.179h-14.152v-11.179H161.276z M143.555,167.518c1.797,0,3.434,0.458,4.878,1.367  c1.441,0.909,2.518,2.212,3.27,3.867c0.749,1.652,1.129,3.551,1.129,5.766c0,3.508-0.863,6.242-2.617,8.151  c-1.751,1.905-4.006,2.852-6.719,2.852c-2.663,0-4.897-0.965-6.66-2.852c-1.766-1.89-2.617-4.451-2.617-7.733  c0-4.102,0.894-7.05,2.734-8.801C138.794,168.382,141.003,167.518,143.555,167.518" class="colorfff svgShape"></path><rect width="294.363" height="192.615" fill="none"></rect></svg></g></svg>