<svg id="SvgjsSvg1001" width="288" height="288" xmlns="http://www.w3.org/2000/svg" version="1.1" xmlns:xlink="http://www.w3.org/1999/xlink" xmlns:svgjs="http://svgjs.com/svgjs"><defs id="SvgjsDefs1002"></defs><g id="SvgjsG1008"><svg xmlns="http://www.w3.org/2000/svg" xmlns:xlink="http://www.w3.org/1999/xlink" viewBox="0 0 351 159" width="288" height="288"><defs fill="#fff"><symbol id="a" fill="#fff" overflow="visible"><path d="M 1.15625 -8.375 C 1.15625 -11.21875 1.921875 -13.445312 3.453125 -15.0625 C 4.984375 -16.675781 6.960938 -17.484375 9.390625 -17.484375 C 10.972656 -17.484375 12.398438 -17.101562 13.671875 -16.34375 C 14.953125 -15.59375 15.925781 -14.535156 16.59375 -13.171875 C 17.257812 -11.816406 17.59375 -10.28125 17.59375 -8.5625 C 17.59375 -6.820312 17.238281 -5.265625 16.53125 -3.890625 C 15.832031 -2.515625 14.835938 -1.472656 13.546875 -0.765625 C 12.253906 -0.0546875 10.863281 0.296875 9.375 0.296875 C 7.757812 0.296875 6.3125 -0.09375 5.03125 -0.875 C 3.757812 -1.65625 2.796875 -2.722656 2.140625 -4.078125 C 1.484375 -5.429688 1.15625 -6.863281 1.15625 -8.375 Z M 3.5 -8.328125 C 3.5 -6.265625 4.054688 -4.632812 5.171875 -3.4375 C 6.285156 -2.25 7.679688 -1.65625 9.359375 -1.65625 C 11.078125 -1.65625 12.488281 -2.253906 13.59375 -3.453125 C 14.695312 -4.660156 15.25 -6.367188 15.25 -8.578125 C 15.25 -9.972656 15.007812 -11.191406 14.53125 -12.234375 C 14.0625 -13.285156 13.367188 -14.097656 12.453125 -14.671875 C 11.546875 -15.242188 10.53125 -15.53125 9.40625 -15.53125 C 7.789062 -15.53125 6.398438 -14.976562 5.234375 -13.875 C 4.078125 -12.769531 3.5 -10.921875 3.5 -8.328125 Z M 3.5 -8.328125 " fill="#000000" class="color000 svgShape"></path></symbol><symbol id="b" fill="#fff" overflow="visible"><path d="M 1.921875 0 L 1.921875 -17.1875 L 4.203125 -17.1875 L 4.203125 -10.125 L 13.125 -10.125 L 13.125 -17.1875 L 15.40625 -17.1875 L 15.40625 0 L 13.125 0 L 13.125 -8.09375 L 4.203125 -8.09375 L 4.203125 0 Z M 1.921875 0 " fill="#000000" class="color000 svgShape"></path></symbol><symbol id="f" fill="#fff" overflow="visible"><path d="M 14.109375 -6.03125 L 16.390625 -5.453125 C 15.910156 -3.585938 15.050781 -2.160156 13.8125 -1.171875 C 12.570312 -0.191406 11.054688 0.296875 9.265625 0.296875 C 7.421875 0.296875 5.914062 -0.078125 4.75 -0.828125 C 3.59375 -1.585938 2.710938 -2.679688 2.109375 -4.109375 C 1.503906 -5.546875 1.203125 -7.082031 1.203125 -8.71875 C 1.203125 -10.507812 1.539062 -12.070312 2.21875 -13.40625 C 2.90625 -14.738281 3.878906 -15.75 5.140625 -16.4375 C 6.398438 -17.125 7.789062 -17.46875 9.3125 -17.46875 C 11.03125 -17.46875 12.472656 -17.03125 13.640625 -16.15625 C 14.816406 -15.28125 15.632812 -14.050781 16.09375 -12.46875 L 13.859375 -11.9375 C 13.453125 -13.1875 12.867188 -14.097656 12.109375 -14.671875 C 11.359375 -15.242188 10.410156 -15.53125 9.265625 -15.53125 C 7.941406 -15.53125 6.835938 -15.210938 5.953125 -14.578125 C 5.066406 -13.941406 4.441406 -13.09375 4.078125 -12.03125 C 3.722656 -10.96875 3.546875 -9.867188 3.546875 -8.734375 C 3.546875 -7.273438 3.753906 -6 4.171875 -4.90625 C 4.597656 -3.8125 5.257812 -2.992188 6.15625 -2.453125 C 7.0625 -1.921875 8.035156 -1.65625 9.078125 -1.65625 C 10.359375 -1.65625 11.4375 -2.019531 12.3125 -2.75 C 13.195312 -3.488281 13.796875 -4.582031 14.109375 -6.03125 Z M 14.109375 -6.03125 " fill="#000000" class="color000 svgShape"></path></symbol><symbol id="c" fill="#fff" overflow="visible"><path d="M 2.578125 3.375 C 1.765625 1.582031 1.359375 -0.257812 1.359375 -2.15625 C 1.359375 -3.414062 1.519531 -4.585938 1.84375 -5.671875 C 2.175781 -6.765625 2.679688 -7.84375 3.359375 -8.90625 C 3.804688 -9.613281 4.523438 -10.53125 5.515625 -11.65625 L 6.609375 -11.65625 C 6.003906 -11 5.359375 -10.078125 4.671875 -8.890625 C 3.992188 -7.710938 3.5 -6.550781 3.1875 -5.40625 C 2.882812 -4.269531 2.734375 -3.128906 2.734375 -1.984375 C 2.734375 -0.253906 3.035156 1.53125 3.640625 3.375 Z M 2.578125 3.375 " fill="#000000" class="color000 svgShape"></path></symbol><symbol id="d" fill="#fff" overflow="visible"><path d="M 0.75 0 L 3.15625 -11.453125 L 7.953125 -11.453125 C 8.898438 -11.453125 9.617188 -11.375 10.109375 -11.21875 C 10.597656 -11.0625 10.984375 -10.765625 11.265625 -10.328125 C 11.546875 -9.890625 11.6875 -9.335938 11.6875 -8.671875 C 11.6875 -7.734375 11.378906 -6.957031 10.765625 -6.34375 C 10.160156 -5.726562 9.175781 -5.332031 7.8125 -5.15625 C 8.226562 -4.84375 8.546875 -4.539062 8.765625 -4.25 C 9.242188 -3.570312 9.628906 -2.875 9.921875 -2.15625 L 10.796875 0 L 9.078125 0 L 8.265625 -2.140625 C 7.960938 -2.910156 7.625 -3.578125 7.25 -4.140625 C 6.988281 -4.523438 6.722656 -4.78125 6.453125 -4.90625 C 6.179688 -5.03125 5.738281 -5.09375 5.125 -5.09375 L 3.34375 -5.09375 L 2.28125 0 Z M 3.609375 -6.328125 L 5.71875 -6.328125 C 6.695312 -6.328125 7.335938 -6.34375 7.640625 -6.375 C 8.210938 -6.425781 8.679688 -6.550781 9.046875 -6.75 C 9.421875 -6.957031 9.707031 -7.234375 9.90625 -7.578125 C 10.113281 -7.921875 10.21875 -8.289062 10.21875 -8.6875 C 10.21875 -9.019531 10.140625 -9.3125 9.984375 -9.5625 C 9.835938 -9.8125 9.640625 -9.976562 9.390625 -10.0625 C 9.148438 -10.15625 8.738281 -10.203125 8.15625 -10.203125 L 4.421875 -10.203125 Z M 3.609375 -6.328125 " fill="#000000" class="color000 svgShape"></path></symbol><symbol id="e" fill="#fff" overflow="visible"><path d="M 3.171875 -11.65625 C 3.992188 -9.863281 4.40625 -8.023438 4.40625 -6.140625 C 4.40625 -4.867188 4.238281 -3.691406 3.90625 -2.609375 C 3.582031 -1.523438 3.082031 -0.445312 2.40625 0.625 C 1.945312 1.332031 1.226562 2.25 0.25 3.375 L -0.859375 3.375 C -0.242188 2.71875 0.398438 1.796875 1.078125 0.609375 C 1.765625 -0.578125 2.257812 -1.738281 2.5625 -2.875 C 2.863281 -4.007812 3.015625 -5.15625 3.015625 -6.3125 C 3.015625 -8.03125 2.71875 -9.8125 2.125 -11.65625 Z M 3.171875 -11.65625 " fill="#000000" class="color000 svgShape"></path></symbol><symbol id="g" fill="#fff" overflow="visible"><path d="M 0.75 -3.40625 L 2.34375 -3.609375 C 2.519531 -2.710938 2.828125 -2.066406 3.265625 -1.671875 C 3.703125 -1.273438 4.234375 -1.078125 4.859375 -1.078125 C 5.609375 -1.078125 6.238281 -1.332031 6.75 -1.84375 C 7.257812 -2.363281 7.515625 -3.003906 7.515625 -3.765625 C 7.515625 -4.492188 7.273438 -5.09375 6.796875 -5.5625 C 6.328125 -6.039062 5.726562 -6.28125 5 -6.28125 C 4.695312 -6.28125 4.320312 -6.21875 3.875 -6.09375 L 4.046875 -7.484375 C 4.148438 -7.472656 4.238281 -7.46875 4.3125 -7.46875 C 4.976562 -7.46875 5.582031 -7.644531 6.125 -8 C 6.664062 -8.351562 6.9375 -8.894531 6.9375 -9.625 C 6.9375 -10.207031 6.738281 -10.6875 6.34375 -11.0625 C 5.945312 -11.445312 5.441406 -11.640625 4.828125 -11.640625 C 4.210938 -11.640625 3.695312 -11.445312 3.28125 -11.0625 C 2.875 -10.675781 2.613281 -10.09375 2.5 -9.3125 L 0.921875 -9.59375 C 1.109375 -10.65625 1.546875 -11.476562 2.234375 -12.0625 C 2.921875 -12.644531 3.773438 -12.9375 4.796875 -12.9375 C 5.492188 -12.9375 6.140625 -12.785156 6.734375 -12.484375 C 7.328125 -12.179688 7.78125 -11.769531 8.09375 -11.25 C 8.40625 -10.726562 8.5625 -10.175781 8.5625 -9.59375 C 8.5625 -9.03125 8.410156 -8.519531 8.109375 -8.0625 C 7.816406 -7.613281 7.375 -7.253906 6.78125 -6.984375 C 7.539062 -6.804688 8.128906 -6.4375 8.546875 -5.875 C 8.972656 -5.320312 9.1875 -4.632812 9.1875 -3.8125 C 9.1875 -2.6875 8.773438 -1.726562 7.953125 -0.9375 C 7.140625 -0.15625 6.109375 0.234375 4.859375 0.234375 C 3.722656 0.234375 2.78125 -0.101562 2.03125 -0.78125 C 1.289062 -1.457031 0.863281 -2.332031 0.75 -3.40625 Z M 0.75 -3.40625 " fill="#000000" class="color000 svgShape"></path></symbol></defs><path fill="#000000" d="M4.351562 122.199219L2.648438 123.199219 2.648438 82.5 4.351562 83.5zM10.300781 119.25L8.601562 119.25 8.601562 86.449219 10.300781 86.449219zM10.300781 119.25" class="colorfff svgShape"></path><path fill="#000000" d="M37.851562 141.550781L37.851562 143.5 2.648438 123.199219 4.351562 122.199219zM71.398438 122.199219L73.101562 123.199219 37.851562 143.5 37.851562 141.550781zM65.851562 118.5L66.699219 120 38.300781 136.398438 37.449219 134.898438zM65.851562 118.5" class="colorfff svgShape"></path><path fill="#000000" d="M 71.398438 83.5 L 72.25 83 L 73.101562 83.5 L 73.101562 123.199219 L 71.398438 122.199219 Z M 71.398438 83.5 " class="colorfff svgShape"></path><path fill="#000000" d="M37.851562 64.148438L37.851562 63.148438 38.699219 62.648438 72.25 82 72.25 83 71.398438 83.5zM37.449219 70.75L38.300781 69.300781 66.699219 85.699219 65.851562 87.148438zM37.449219 70.75" class="colorfff svgShape"></path><path fill="#000000" d="M4.351562 83.5L2.648438 82.5 37 62.648438 37.851562 63.148438 37.851562 64.148438zM106.601562 62.148438L106.601562 64.148438 73.101562 83.5 72.25 83 72.25 82zM106.601562 62.148438" class="colorfff svgShape"></path><g fill="#000000" class="colorfff svgShape"><use x="28.55" y="32.2" xlink:href="#a"></use><use x="47.217" y="32.2" xlink:href="#b"></use></g><path fill="#000000" d="M 37 34.800781 L 38.699219 34.800781 L 38.699219 62.648438 L 37.851562 63.148438 L 37 62.648438 Z M 37 34.800781 " class="colorfff svgShape"></path><use x="131.65" y="91.75" fill="#fff" xlink:href="#a"></use><path fill="#000000" d="M132.101562 76.898438L131.25 78.351562 106.601562 64.148438 106.601562 62.148438zM175.351562 62.148438L175.351562 64.148438 150.75 78.351562 149.898438 76.898438zM175.351562 62.148438" class="colorfff svgShape"></path><g fill="#000000" class="colorfff svgShape"><use x="210.55" y="92.6" xlink:href="#c"></use><use x="215.878" y="92.6" xlink:href="#d"></use></g><use x="227.433" y="92.6" fill="#fff" xlink:href="#e"></use><g fill="#000000" class="colorfff svgShape"><use x="210.55" y="92.6" xlink:href="#c"></use><use x="215.878" y="92.6" xlink:href="#d"></use></g><use x="227.433" y="92.6" fill="#fff" xlink:href="#e"></use><path fill="#000000" d="M209.75 82L209.75 83 208.898438 83.5 175.351562 64.148438 175.351562 62.148438zM243.25 62.648438L244.949219 63.648438 210.601562 83.5 209.75 83 209.75 82zM243.25 62.648438" class="colorfff svgShape"></path><use x="97.3" y="32.2" fill="#fff" xlink:href="#a"></use><path fill="#000000" d="M102.800781 34.800781L104.5 34.800781 104.5 64.851562 102.800781 64.851562zM108.75 34.800781L110.449219 34.800781 110.449219 64.851562 108.75 64.851562zM210.601562 122.199219L208.898438 123.199219 208.898438 83.5 209.75 83 210.601562 83.5zM210.601562 122.199219" class="colorfff svgShape"></path><g fill="#000000" class="colorfff svgShape"><use x="235.3" y="151.3" xlink:href="#f"></use><use x="252.633" y="151.3" xlink:href="#b"></use></g><use x="270.014" y="156.386" fill="#fff" xlink:href="#g"></use><path fill="#000000" d="M235.601562 136.648438L234.75 138.101562 208.898438 123.199219 210.601562 122.199219zM243.25 22.949219L244.949219 23.949219 244.949219 63.648438 243.25 62.648438zM243.25 22.949219" class="colorfff svgShape"></path><path fill="#000000" d="M 278.5 2.648438 L 278.5 4.601562 L 244.949219 23.949219 L 243.25 22.949219 Z M 278.5 2.648438 " class="colorfff svgShape"></path><g fill="#000000" class="colorfff svgShape"><use x="304.05" y="32.2" xlink:href="#f"></use><use x="321.383" y="32.2" xlink:href="#b"></use></g><use x="338.764" y="37.286" fill="#fff" xlink:href="#g"></use><path fill="#000000" d="M 304.351562 17.550781 L 303.5 19.050781 L 278.5 4.601562 L 278.5 2.648438 Z M 304.351562 17.550781 " class="colorfff svgShape"></path><use x="190.8" y="53.25" fill="#fff" xlink:href="#b"></use><path fill="#000000" d="M198.949219 57.550781L206.351562 55.550781 206.648438 57.648438 199.75 59.5zM200.550781 61.449219L206.898438 59.75 207.199219 61.851562 201.351562 63.398438zM202.148438 65.398438L207.449219 63.949219 207.75 66.050781 203 67.351562zM203.800781 69.300781L208.050781 68.148438 208.300781 70.25 204.601562 71.25zM205.398438 73.25L208.601562 72.351562 208.898438 74.449219 206.199219 75.199219zM207 77.148438L209.148438 76.550781 209.449219 78.648438 207.800781 79.101562zM207 77.148438" class="colorfff svgShape"></path></svg></g></svg>