<svg id="SvgjsSvg1001" width="288" height="288" xmlns="http://www.w3.org/2000/svg" version="1.1" xmlns:xlink="http://www.w3.org/1999/xlink" xmlns:svgjs="http://svgjs.com/svgjs"><defs id="SvgjsDefs1002"></defs><g id="SvgjsG1008"><svg xmlns="http://www.w3.org/2000/svg" enable-background="new 0 0 294.363 192.615" viewBox="0 0 294.363 192.615" width="288" height="288"><path fill="#000000" d="M77.353,176.999L51,161.841l0.097-30.553l0.097-30.556l25.724-14.834l25.724-14.834l0.003-20.335l0.003-20.334h1.125h1.122  l0.009,20.334l0.006,20.335l25.175,14.52l25.177,14.523l16.946-9.771c9.322-5.373,17.376-10.042,17.9-10.375  c0.851-0.544,1.025-0.495,1.668,0.487l0.717,1.096l-17.846,10.307l-17.846,10.304l-0.134,29.844l-0.131,29.841l-23.421,13.481  c-12.881,7.417-24.767,14.239-26.416,15.158l-2.998,1.677L77.353,176.999z M137.027,170.089l16.627-9.598v-29.195v-29.195  l-24.716-14.273c-13.595-7.852-24.918-14.276-25.166-14.276c-0.248,0-11.574,6.426-25.166,14.284L53.89,102.124v29.175v29.178  l24.941,14.407l24.941,14.404l8.314-4.797C116.658,181.848,127.882,175.37,137.027,170.089 M103.673,180.364  c-0.47-1.031,0.063-1.37,20.48-13.125c11.531-6.637,21.092-12.132,21.251-12.211c0.157-0.08,0.592,0.322,0.968,0.891  c0.678,1.036,0.655,1.051-20.061,13.006c-11.409,6.58-21.06,12.086-21.448,12.234C104.398,181.332,103.991,181.062,103.673,180.364   M59.957,131.282v-24.491h1.347h1.35v24.491v24.491h-1.35h-1.347V131.282z M124.149,95.439  c-20.465-11.875-20.952-12.189-20.48-13.231c0.305-0.666,0.735-0.971,1.15-0.814c0.362,0.142,10.011,5.652,21.439,12.246  c20.722,11.955,20.776,11.992,20.104,13.02c-0.373,0.567-0.806,1.011-0.962,0.988C145.244,107.625,135.68,102.13,124.149,95.439   M202.543,85.494c-2.861-0.934-5.316-3.129-6.736-6.022c-1.11-2.264-1.258-3.066-1.258-6.833c0-3.773,0.148-4.57,1.264-6.845  c2.705-5.506,8.314-7.821,14.495-5.976c4.763,1.421,7.696,5.583,8.149,11.562c0.626,8.291-3.852,14.116-11.192,14.56  C205.604,86.043,203.654,85.858,202.543,85.494 M211.281,81.343c2.172-1.731,3.291-4.017,3.593-7.346  c0.461-5.099-1.435-9.219-4.994-10.836c-4.647-2.11-9.845,0.265-11.298,5.159c-2.394,8.063,1.609,14.967,8.43,14.535  C209.052,82.727,209.94,82.413,211.281,81.343 M223.085,72.639V59.605h1.797h1.797v5.392v5.393h6.742h6.739v-5.393v-5.392h1.799  h1.797v13.034V85.67h-1.797h-1.799v-6.067v-6.067h-6.739h-6.742v6.067v6.067h-1.797h-1.797V72.639z M99.809,26.148  c-2.83-1.008-4.308-2.494-6.056-6.087c-1.039-2.144-1.201-3.041-1.207-6.742C92.534,8.601,93.46,5.765,95.82,3.279  c2.682-2.827,7.662-4.109,11.71-3.012c2.346,0.635,5.17,3.175,6.119,5.504l0.678,1.665L112.644,7.9  c-0.925,0.256-1.734,0.316-1.797,0.134c-0.456-1.33-2.141-3.408-3.365-4.154c-3.249-1.985-8.228-0.45-10.227,3.146  c-0.977,1.759-1.122,2.577-1.122,6.292c0,3.716,0.145,4.533,1.122,6.292c1.5,2.702,4.276,4.182,7.337,3.912  c2.702-0.239,4.254-1.35,5.694-4.08c1.082-2.044,1.184-2.112,2.696-1.836c0.865,0.157,1.64,0.35,1.717,0.427  c0.475,0.467-2.115,4.997-3.573,6.244C108.251,26.737,103.61,27.506,99.809,26.148 M126.598,26.176  c-2.861-0.937-5.316-3.129-6.736-6.025c-1.113-2.263-1.261-3.066-1.261-6.833c0-3.77,0.148-4.57,1.267-6.845  c2.702-5.506,8.314-7.818,14.495-5.976c4.76,1.421,7.693,5.583,8.146,11.562c0.626,8.291-3.849,14.116-11.189,14.563  C129.656,26.723,127.705,26.538,126.598,26.176 M135.333,22.025c2.175-1.734,3.294-4.02,3.596-7.346  c0.461-5.102-1.438-9.222-4.997-10.836c-4.647-2.11-9.843,0.262-11.298,5.156c-2.394,8.063,1.612,14.97,8.431,14.538  C133.106,23.406,133.995,23.093,135.333,22.025 M154.46,26.176c-2.861-0.937-5.316-3.129-6.736-6.025  c-1.113-2.263-1.261-3.066-1.261-6.833c0-3.77,0.148-4.57,1.264-6.845c2.705-5.506,8.317-7.818,14.495-5.976  c4.763,1.421,7.696,5.583,8.149,11.562c0.626,8.291-3.849,14.116-11.189,14.563C157.518,26.723,155.568,26.538,154.46,26.176   M163.195,22.025c2.175-1.734,3.294-4.02,3.593-7.346c0.464-5.102-1.435-9.222-4.994-10.836c-4.647-2.11-9.843,0.262-11.298,5.156  c-2.394,8.063,1.612,14.97,8.43,14.538C160.969,23.406,161.857,23.093,163.195,22.025 M175,13.318V0.287h1.797h1.799v5.392v5.393  h6.739h6.742V5.679V0.287h1.797h1.797v13.031V26.35h-1.797h-1.797v-6.064v-6.067h-6.742h-6.739v6.067v6.064h-1.799H175V13.318z" class="colorfff svgShape"></path></svg></g></svg>