<svg id="SvgjsSvg1001" width="288" height="288" xmlns="http://www.w3.org/2000/svg" version="1.1" xmlns:xlink="http://www.w3.org/1999/xlink" xmlns:svgjs="http://svgjs.com/svgjs"><defs id="SvgjsDefs1002"></defs><g id="SvgjsG1008"><svg xmlns="http://www.w3.org/2000/svg" enable-background="new 0 0 294.363 192.615" viewBox="0 0 294.363 192.615" width="288" height="288"><path fill="#000000" d="M133.789 24.051c0-3.42.917-6.097 2.756-8.033 1.837-1.935 4.206-2.902 7.113-2.902 1.9 0 3.618.454 5.143 1.362 1.528.911 2.692 2.177 3.495 3.804.8 1.624 1.202 3.469 1.202 5.53 0 2.09-.422 3.961-1.266 5.611-.844 1.647-2.037 2.896-3.586 3.746-1.545.847-3.213 1.272-5.003 1.272-1.941 0-3.673-.469-5.201-1.406-1.528-.937-2.686-2.215-3.472-3.839C134.182 27.576 133.789 25.862 133.789 24.051M136.601 24.095c0 2.483.666 4.441 2.002 5.87 1.336 1.429 3.012 2.142 5.026 2.142 2.052 0 3.743-.722 5.067-2.165 1.327-1.444 1.991-3.49 1.991-6.141 0-1.679-.285-3.143-.85-4.395-.567-1.251-1.397-2.221-2.488-2.91-1.094-.687-2.32-1.033-3.676-1.033-1.933 0-3.594.663-4.986 1.991S136.601 20.992 136.601 24.095M151.828 11.384V9.825h12.244v1.559H151.828zM216.772 24.051c0-3.42.917-6.097 2.756-8.033 1.837-1.935 4.206-2.902 7.113-2.902 1.9 0 3.618.454 5.143 1.362 1.528.911 2.692 2.177 3.495 3.804.8 1.624 1.202 3.469 1.202 5.53 0 2.09-.422 3.961-1.266 5.611-.844 1.647-2.037 2.896-3.586 3.746-1.545.847-3.213 1.272-5.003 1.272-1.941 0-3.676-.469-5.201-1.406-1.528-.937-2.686-2.215-3.472-3.839C217.165 27.576 216.772 25.862 216.772 24.051M219.584 24.095c0 2.483.666 4.441 2.002 5.87 1.336 1.429 3.012 2.142 5.026 2.142 2.052 0 3.743-.722 5.067-2.165 1.327-1.444 1.991-3.49 1.991-6.141 0-1.679-.285-3.143-.85-4.395-.567-1.251-1.397-2.221-2.488-2.91-1.094-.687-2.32-1.033-3.679-1.033-1.93 0-3.592.663-4.983 1.991S219.584 20.992 219.584 24.095" class="colorfff svgShape"></path><polygon fill="#000000" points="72.888 106.065 72.888 85.456 75.615 85.456 75.615 93.92 86.325 93.92 86.325 85.456 89.055 85.456 89.055 106.065 86.325 106.065 86.325 96.35 75.615 96.35 75.615 106.065" class="colorfff svgShape"></polygon><path fill="#000000" d="M92.766,96.027c0-3.42,0.917-6.097,2.756-8.033c1.837-1.935,4.206-2.902,7.113-2.902c1.9,0,3.618,0.454,5.143,1.362  c1.528,0.911,2.692,2.177,3.495,3.804c0.8,1.624,1.202,3.469,1.202,5.53c0,2.09-0.422,3.961-1.266,5.611  c-0.844,1.647-2.037,2.896-3.586,3.746c-1.545,0.847-3.213,1.272-5.003,1.272c-1.941,0-3.673-0.469-5.201-1.406  c-1.528-0.937-2.686-2.218-3.472-3.839C93.159,99.551,92.766,97.837,92.766,96.027 M95.578,96.07c0,2.483,0.666,4.441,2.002,5.868  c1.336,1.432,3.012,2.145,5.026,2.145c2.052,0,3.743-0.722,5.067-2.165c1.327-1.444,1.991-3.49,1.991-6.141  c0-1.679-0.285-3.143-0.85-4.395c-0.567-1.251-1.397-2.221-2.488-2.91c-1.094-0.687-2.32-1.033-3.676-1.033  c-1.933,0-3.594,0.663-4.986,1.991C96.273,90.753,95.578,92.968,95.578,96.07" class="colorfff svgShape"></path><polygon fill="#000000" points="70.309 11.364 70.309 27.544 59.482 11.364 56.688 11.364 56.688 31.974 59.302 31.974 59.302 15.78 70.126 31.974 72.923 31.974 72.923 11.364" class="colorfff svgShape"></polygon><path fill="#000000" d="M86.922 30.134c-.937.795-1.837 1.359-2.704 1.685-.867.329-1.799.492-2.791.492-1.641 0-2.902-.399-3.781-1.202-.882-.8-1.321-1.825-1.321-3.071 0-.731.166-1.397.498-2.002.332-.605.768-1.091 1.307-1.455.538-.367 1.147-.643 1.822-.83.495-.131 1.246-.259 2.25-.381 2.04-.242 3.545-.533 4.511-.87.009-.346.014-.568.014-.661 0-1.03-.239-1.758-.716-2.18-.649-.57-1.609-.856-2.884-.856-1.19 0-2.069.207-2.634.626-.567.416-.987 1.155-1.26 2.212l-2.474-.338c.227-1.056.597-1.912 1.112-2.564.515-.652 1.26-1.153 2.235-1.505.975-.352 2.104-.527 3.388-.527 1.275 0 2.311.151 3.106.451.797.3 1.382.675 1.758 1.129.375.457.637 1.03.789 1.723.084.431.125 1.208.125 2.334v3.373c0 2.352.055 3.842.163 4.465.108.623.32 1.219.637 1.79h-2.643C87.167 31.45 86.998 30.836 86.922 30.134M86.713 24.482c-.92.376-2.296.693-4.133.955-1.039.151-1.775.32-2.206.506-.431.189-.765.463-.998.824-.236.361-.352.763-.352 1.202 0 .675.256 1.237.765 1.688.512.448 1.257.672 2.244.672.972 0 1.839-.212 2.599-.637.76-.428 1.318-1.01 1.674-1.752.271-.571.408-1.415.408-2.529V24.482zM86.68 11.219V6.897h-4.289V5.091h4.289V.802h1.827v4.289h4.29v1.806h-4.29v4.321H86.68z" class="colorfff svgShape"></path><line x1="160.149" x2="185.29" y1="33.688" y2="48.202" fill="none" stroke="#000000" stroke-linecap="round" stroke-linejoin="bevel" stroke-miterlimit="10" stroke-width="1.866" class="colorStrokefff svgStroke"></line><line x1="180.982" x2="208.276" y1="45.714" y2="29.954" fill="none" stroke="#000000" stroke-linecap="round" stroke-linejoin="bevel" stroke-miterlimit="10" stroke-width="1.866" class="colorStrokefff svgStroke"></line><line x1="185.29" x2="212.584" y1="53.179" y2="37.419" fill="none" stroke="#000000" stroke-linecap="round" stroke-linejoin="bevel" stroke-miterlimit="10" stroke-width="1.866" class="colorStrokefff svgStroke"></line><line x1="185.29" x2="185.29" y1="48.202" y2="96.094" fill="none" stroke="#000000" stroke-linecap="round" stroke-linejoin="bevel" stroke-miterlimit="10" stroke-width="1.866" class="colorStrokefff svgStroke"></line><line x1="185.29" x2="226.764" y1="96.094" y2="120.038" fill="none" stroke="#000000" stroke-linecap="round" stroke-linejoin="bevel" stroke-miterlimit="10" stroke-width="1.866" class="colorStrokefff svgStroke"></line><line x1="185.29" x2="218.143" y1="106.048" y2="125.015" fill="none" stroke="#000000" stroke-linecap="round" stroke-linejoin="bevel" stroke-miterlimit="10" stroke-width="1.866" class="colorStrokefff svgStroke"></line><line x1="226.767" x2="226.767" y1="120.038" y2="167.93" fill="none" stroke="#000000" stroke-linecap="round" stroke-linejoin="bevel" stroke-miterlimit="10" stroke-width="1.866" class="colorStrokefff svgStroke"></line><line x1="226.767" x2="185.293" y1="167.93" y2="191.874" fill="none" stroke="#000000" stroke-linecap="round" stroke-linejoin="bevel" stroke-miterlimit="10" stroke-width="1.866" class="colorStrokefff svgStroke"></line><line x1="218.146" x2="185.293" y1="162.953" y2="181.92" fill="none" stroke="#000000" stroke-linecap="round" stroke-linejoin="bevel" stroke-miterlimit="10" stroke-width="1.866" class="colorStrokefff svgStroke"></line><line x1="185.29" x2="143.816" y1="191.874" y2="167.93" fill="none" stroke="#000000" stroke-linecap="round" stroke-linejoin="bevel" stroke-miterlimit="10" stroke-width="1.866" class="colorStrokefff svgStroke"></line><line x1="143.816" x2="143.816" y1="167.93" y2="120.038" fill="none" stroke="#000000" stroke-linecap="round" stroke-linejoin="bevel" stroke-miterlimit="10" stroke-width="1.866" class="colorStrokefff svgStroke"></line><line x1="152.436" x2="152.436" y1="162.953" y2="125.015" fill="none" stroke="#000000" stroke-linecap="round" stroke-linejoin="bevel" stroke-miterlimit="10" stroke-width="1.866" class="colorStrokefff svgStroke"></line><line x1="185.29" x2="143.816" y1="96.094" y2="120.038" fill="none" stroke="#000000" stroke-linecap="round" stroke-linejoin="bevel" stroke-miterlimit="10" stroke-width="1.866" class="colorStrokefff svgStroke"></line><line x1="143.816" x2="118.675" y1="120.038" y2="105.524" fill="none" stroke="#000000" stroke-linecap="round" stroke-linejoin="bevel" stroke-miterlimit="10" stroke-width="1.866" class="colorStrokefff svgStroke"></line></svg></g></svg>