<svg id="SvgjsSvg1001" width="288" height="288" xmlns="http://www.w3.org/2000/svg" version="1.1" xmlns:xlink="http://www.w3.org/1999/xlink" xmlns:svgjs="http://svgjs.com/svgjs"><defs id="SvgjsDefs1002"></defs><g id="SvgjsG1008"><svg xmlns="http://www.w3.org/2000/svg" xmlns:xlink="http://www.w3.org/1999/xlink" viewBox="0 0 316 196" width="288" height="288"><defs><symbol id="a" overflow="visible"><path d="M 1.15625 -8.375 C 1.15625 -11.21875 1.921875 -13.445312 3.453125 -15.0625 C 4.984375 -16.675781 6.960938 -17.484375 9.390625 -17.484375 C 10.972656 -17.484375 12.398438 -17.101562 13.671875 -16.34375 C 14.953125 -15.59375 15.925781 -14.535156 16.59375 -13.171875 C 17.257812 -11.816406 17.59375 -10.28125 17.59375 -8.5625 C 17.59375 -6.820312 17.238281 -5.265625 16.53125 -3.890625 C 15.832031 -2.515625 14.835938 -1.472656 13.546875 -0.765625 C 12.253906 -0.0546875 10.863281 0.296875 9.375 0.296875 C 7.757812 0.296875 6.3125 -0.09375 5.03125 -0.875 C 3.757812 -1.65625 2.796875 -2.722656 2.140625 -4.078125 C 1.484375 -5.429688 1.15625 -6.863281 1.15625 -8.375 Z M 3.5 -8.328125 C 3.5 -6.265625 4.054688 -4.632812 5.171875 -3.4375 C 6.285156 -2.25 7.679688 -1.65625 9.359375 -1.65625 C 11.078125 -1.65625 12.488281 -2.253906 13.59375 -3.453125 C 14.695312 -4.660156 15.25 -6.367188 15.25 -8.578125 C 15.25 -9.972656 15.007812 -11.191406 14.53125 -12.234375 C 14.0625 -13.285156 13.367188 -14.097656 12.453125 -14.671875 C 11.546875 -15.242188 10.53125 -15.53125 9.40625 -15.53125 C 7.789062 -15.53125 6.398438 -14.976562 5.234375 -13.875 C 4.078125 -12.769531 3.5 -10.921875 3.5 -8.328125 Z M 3.5 -8.328125 " fill="#ffffff" class="color000 svgShape"></path></symbol><symbol id="b" overflow="visible"><path d="M 1.921875 0 L 1.921875 -17.1875 L 4.203125 -17.1875 L 4.203125 -10.125 L 13.125 -10.125 L 13.125 -17.1875 L 15.40625 -17.1875 L 15.40625 0 L 13.125 0 L 13.125 -8.09375 L 4.203125 -8.09375 L 4.203125 0 Z M 1.921875 0 " fill="#ffffff" class="color000 svgShape"></path></symbol><symbol id="c" overflow="visible"><path d="M 14.109375 -6.03125 L 16.390625 -5.453125 C 15.910156 -3.585938 15.050781 -2.160156 13.8125 -1.171875 C 12.570312 -0.191406 11.054688 0.296875 9.265625 0.296875 C 7.421875 0.296875 5.914062 -0.078125 4.75 -0.828125 C 3.59375 -1.585938 2.710938 -2.679688 2.109375 -4.109375 C 1.503906 -5.546875 1.203125 -7.082031 1.203125 -8.71875 C 1.203125 -10.507812 1.539062 -12.070312 2.21875 -13.40625 C 2.90625 -14.738281 3.878906 -15.75 5.140625 -16.4375 C 6.398438 -17.125 7.789062 -17.46875 9.3125 -17.46875 C 11.03125 -17.46875 12.472656 -17.03125 13.640625 -16.15625 C 14.816406 -15.28125 15.632812 -14.050781 16.09375 -12.46875 L 13.859375 -11.9375 C 13.453125 -13.1875 12.867188 -14.097656 12.109375 -14.671875 C 11.359375 -15.242188 10.410156 -15.53125 9.265625 -15.53125 C 7.941406 -15.53125 6.835938 -15.210938 5.953125 -14.578125 C 5.066406 -13.941406 4.441406 -13.09375 4.078125 -12.03125 C 3.722656 -10.96875 3.546875 -9.867188 3.546875 -8.734375 C 3.546875 -7.273438 3.753906 -6 4.171875 -4.90625 C 4.597656 -3.8125 5.257812 -2.992188 6.15625 -2.453125 C 7.0625 -1.921875 8.035156 -1.65625 9.078125 -1.65625 C 10.359375 -1.65625 11.4375 -2.019531 12.3125 -2.75 C 13.195312 -3.488281 13.796875 -4.582031 14.109375 -6.03125 Z M 14.109375 -6.03125 " fill="#ffffff" class="color000 svgShape"></path></symbol><symbol id="d" overflow="visible"><path d="M 0.75 -3.40625 L 2.34375 -3.609375 C 2.519531 -2.710938 2.828125 -2.066406 3.265625 -1.671875 C 3.703125 -1.273438 4.234375 -1.078125 4.859375 -1.078125 C 5.609375 -1.078125 6.238281 -1.332031 6.75 -1.84375 C 7.257812 -2.363281 7.515625 -3.003906 7.515625 -3.765625 C 7.515625 -4.492188 7.273438 -5.09375 6.796875 -5.5625 C 6.328125 -6.039062 5.726562 -6.28125 5 -6.28125 C 4.695312 -6.28125 4.320312 -6.21875 3.875 -6.09375 L 4.046875 -7.484375 C 4.148438 -7.472656 4.238281 -7.46875 4.3125 -7.46875 C 4.976562 -7.46875 5.582031 -7.644531 6.125 -8 C 6.664062 -8.351562 6.9375 -8.894531 6.9375 -9.625 C 6.9375 -10.207031 6.738281 -10.6875 6.34375 -11.0625 C 5.945312 -11.445312 5.441406 -11.640625 4.828125 -11.640625 C 4.210938 -11.640625 3.695312 -11.445312 3.28125 -11.0625 C 2.875 -10.675781 2.613281 -10.09375 2.5 -9.3125 L 0.921875 -9.59375 C 1.109375 -10.65625 1.546875 -11.476562 2.234375 -12.0625 C 2.921875 -12.644531 3.773438 -12.9375 4.796875 -12.9375 C 5.492188 -12.9375 6.140625 -12.785156 6.734375 -12.484375 C 7.328125 -12.179688 7.78125 -11.769531 8.09375 -11.25 C 8.40625 -10.726562 8.5625 -10.175781 8.5625 -9.59375 C 8.5625 -9.03125 8.410156 -8.519531 8.109375 -8.0625 C 7.816406 -7.613281 7.375 -7.253906 6.78125 -6.984375 C 7.539062 -6.804688 8.128906 -6.4375 8.546875 -5.875 C 8.972656 -5.320312 9.1875 -4.632812 9.1875 -3.8125 C 9.1875 -2.6875 8.773438 -1.726562 7.953125 -0.9375 C 7.140625 -0.15625 6.109375 0.234375 4.859375 0.234375 C 3.722656 0.234375 2.78125 -0.101562 2.03125 -0.78125 C 1.289062 -1.457031 0.863281 -2.332031 0.75 -3.40625 Z M 0.75 -3.40625 " fill="#ffffff" class="color000 svgShape"></path></symbol><symbol id="e" overflow="visible"><path d="M 5.421875 -11.5625 C 5.003906 -11.75 4.050781 -11.96875 2.5625 -12.21875 C 1.71875 -12.351562 1.296875 -12.757812 1.296875 -13.4375 C 1.296875 -13.71875 1.40625 -13.976562 1.625 -14.21875 C 1.851562 -14.457031 2.132812 -14.578125 2.46875 -14.578125 C 3.03125 -14.578125 3.484375 -14.300781 3.828125 -13.75 C 4.453125 -12.75 5.0625 -12.144531 5.65625 -11.9375 L 5.828125 -12.03125 C 5.828125 -12.78125 5.65625 -13.441406 5.3125 -14.015625 C 4.976562 -14.585938 4.8125 -15.054688 4.8125 -15.421875 C 4.8125 -15.847656 4.929688 -16.15625 5.171875 -16.34375 C 5.421875 -16.539062 5.707031 -16.640625 6.03125 -16.640625 C 6.320312 -16.640625 6.585938 -16.53125 6.828125 -16.3125 C 7.066406 -16.09375 7.1875 -15.765625 7.1875 -15.328125 C 7.1875 -15.054688 7.03125 -14.625 6.71875 -14.03125 C 6.40625 -13.445312 6.25 -12.769531 6.25 -12 L 6.46875 -11.890625 C 7.09375 -12.328125 7.632812 -12.894531 8.09375 -13.59375 C 8.550781 -14.300781 9.035156 -14.65625 9.546875 -14.65625 C 9.890625 -14.65625 10.171875 -14.539062 10.390625 -14.3125 C 10.609375 -14.082031 10.71875 -13.800781 10.71875 -13.46875 C 10.71875 -12.757812 10.125 -12.320312 8.9375 -12.15625 C 7.757812 -11.988281 7 -11.757812 6.65625 -11.46875 L 6.65625 -11.28125 C 7.050781 -11.039062 7.945312 -10.832031 9.34375 -10.65625 C 10.257812 -10.539062 10.71875 -10.125 10.71875 -9.40625 C 10.71875 -9.082031 10.609375 -8.804688 10.390625 -8.578125 C 10.171875 -8.347656 9.890625 -8.234375 9.546875 -8.234375 C 9.003906 -8.234375 8.484375 -8.628906 7.984375 -9.421875 C 7.484375 -10.222656 6.941406 -10.710938 6.359375 -10.890625 L 6.21875 -10.8125 C 6.269531 -10.050781 6.453125 -9.367188 6.765625 -8.765625 C 7.085938 -8.160156 7.25 -7.710938 7.25 -7.421875 C 7.25 -7.140625 7.195312 -6.90625 7.09375 -6.71875 C 6.882812 -6.351562 6.515625 -6.171875 5.984375 -6.171875 C 5.640625 -6.171875 5.363281 -6.300781 5.15625 -6.5625 C 4.957031 -6.832031 4.859375 -7.125 4.859375 -7.4375 C 4.859375 -7.75 5.019531 -8.21875 5.34375 -8.84375 C 5.664062 -9.46875 5.828125 -9.972656 5.828125 -10.359375 C 5.828125 -10.441406 5.820312 -10.515625 5.8125 -10.578125 C 5.800781 -10.648438 5.789062 -10.734375 5.78125 -10.828125 L 5.609375 -10.9375 C 4.941406 -10.488281 4.378906 -9.914062 3.921875 -9.21875 C 3.460938 -8.53125 3.007812 -8.1875 2.5625 -8.1875 C 2.195312 -8.1875 1.90625 -8.300781 1.6875 -8.53125 C 1.46875 -8.769531 1.359375 -9.03125 1.359375 -9.3125 C 1.359375 -9.757812 1.519531 -10.097656 1.84375 -10.328125 C 2.164062 -10.554688 2.570312 -10.679688 3.0625 -10.703125 C 3.726562 -10.722656 4.195312 -10.769531 4.46875 -10.84375 C 4.75 -10.914062 5.066406 -11.085938 5.421875 -11.359375 Z M 5.421875 -11.5625 " fill="#ffffff" class="color000 svgShape"></path></symbol></defs><path d="M4.039062 164.02734l-1.699218.98438v-40.67188l1.699218.98047zm0 0M8.289062 162.06641H6.589844v-34.78125h1.699218zm0 0" fill="#ffffff" class="color000 svgShape"></path><path d="M37.5625 183.38281v1.96485L2.339844 165.01172 4.039062 164.02734zm0 0M71.085938 164.02734l.847656.49219V165.5L37.5625 185.34766v-1.96485zm0 0M67.261719 161.33203l.847656 1.46875-30.121094 17.39453-.851562-1.47265zm0 0" fill="#ffffff" class="color000 svgShape"></path><path d="M71.085938 125.32031l.847656-.49218.851562.49218v38.70703l-.851562.49219-.847656-.49219zm0 0M37.5625 105.96484v-1.96093l34.371094 19.84375v.98047l-.847656.49218zm0 0M37.136719 110.62891l.851562-1.47266 30.121094 17.39063-.847656 1.47265zm0 0" fill="#ffffff" class="color000 svgShape"></path><path d="M 4.039062,125.32031 2.339844,124.33984 37.5625,104.00391 v 1.96093 z m 0,0" fill="#ffffff" class="color000 svgShape"></path><use width="100%" height="100%" x="96.974" y="193.082" xlink:href="#a"></use><use width="100%" height="100%" x="115.641" y="193.082" xlink:href="#b"></use><use width="100%" height="100%" x="131.346" y="133.547" xlink:href="#a"></use><path d="M97.382812 178.23047L96.535156 179.70312 71.933594 165.5v-.98047l.851562-.49219zm0 0M106.30859 105.96484v-1.96093l25.41016 14.67187-.84766 1.47266zm0 0" fill="#ffffff" class="color000 svgShape"></path><path d="m 72.785156,125.32031 -0.851562,-0.49218 v -0.98047 l 34.374996,-19.84375 v 1.96093 z m 0,0" fill="#ffffff" class="color000 svgShape"></path><use width="100%" height="100%" x="96.974" y="74.012" xlink:href="#a"></use><path d="M103.33203 76.574219h1.69922v29.636721h-1.69922zm0 0M107.58203 76.574219h1.69922v29.636721h-1.69922zm0 0M174.20312 104.49609l.84766.48829v.98046l-24.60156 14.20704-.85156-1.47266zm0 0M209.42578 123.84766v1.96484l-34.375-19.84766v-.98046l.85156-.48829zm0 0" fill="#ffffff" class="color000 svgShape"></path><path d="m 242.94922,104.49609 0.84765,0.48829 v 0.98046 l -34.37109,19.84766 v -1.96484 z m 0,0" fill="#ffffff" class="color000 svgShape"></path><path d="m 242.94922,65.785156 1.69922,-0.980468 v 39.691402 l -0.85157,0.48829 -0.84765,-0.48829 z m 0,0" fill="#ffffff" class="color000 svgShape"></path><path d="M209.42578 46.429688v-.980469l1.16016-.308594 34.0625 19.664063-1.69922.980468zm0 0M175.90234 65.785156l-1.69922-.980468 34.0625-19.664063 1.16016.308594v.980469zm0 0" fill="#ffffff" class="color000 svgShape"></path><path d="m 175.90234,104.49609 -0.85156,0.48829 -0.84766,-0.48829 V 64.804688 l 1.69922,0.980468 z m 0,0" fill="#ffffff" class="color000 svgShape"></path><use width="100%" height="100%" x="220.604" y="19.789" xlink:href="#c"></use><use width="100%" height="100%" x="237.937" y="19.789" xlink:href="#b"></use><use width="100%" height="100%" x="255.268" y="24.875" xlink:href="#d"></use><path d="m 222.97266,20.289062 1.47265,0.847657 -13.85937,24.003906 -1.16016,0.308594 V 43.75 Z m 0,0" fill="#ffffff" class="color000 svgShape"></path><use width="100%" height="100%" x="153.571" y="19.789" xlink:href="#b"></use><use width="100%" height="100%" x="170.903" y="24.875" xlink:href="#d"></use><use width="100%" height="100%" x="180.914" y="19.789" xlink:href="#c"></use><path d="M 194.59375,21.457031 196.06641,20.609375 209.42578,43.75 v 1.699219 l -1.16016,-0.308594 z m 0,0" fill="#ffffff" class="color000 svgShape"></path><use width="100%" height="100%" x="269.504" y="133.541" xlink:href="#c"></use><use width="100%" height="100%" x="286.837" y="133.541" xlink:href="#b"></use><use width="100%" height="100%" x="304.168" y="138.627" xlink:href="#d"></use><path d="m 269.70312,118.96094 -0.85156,1.47265 -25.05469,-14.46875 v -0.98046 l 0.85157,-0.48829 z m 0,0" fill="#ffffff" class="color000 svgShape"></path><use width="100%" height="100%" x="238.678" y="125.799" fill="#bfbfbf" xlink:href="#e" class="colorbfbfbf svgShape"></use><use width="100%" height="100%" x="168.082" y="126.465" fill="#bfbfbf" xlink:href="#e" class="colorbfbfbf svgShape"></use></svg></g></svg>