<svg xmlns="http://www.w3.org/2000/svg" xmlns:xlink="http://www.w3.org/1999/xlink" version="1.1" id="Layer_1" x="0px" y="0px" viewBox="0 0 294.363 192.615" style="enable-background:new 0 0 294.363 192.615;" xml:space="preserve">
<path d="M133.789,24.051c0-3.42,0.917-6.097,2.756-8.033c1.837-1.935,4.206-2.902,7.113-2.902c1.9,0,3.618,0.454,5.143,1.362  c1.528,0.911,2.692,2.177,3.495,3.804c0.8,1.624,1.202,3.469,1.202,5.53c0,2.09-0.422,3.961-1.266,5.611  c-0.844,1.647-2.037,2.896-3.586,3.746c-1.545,0.847-3.213,1.272-5.003,1.272c-1.941,0-3.673-0.469-5.201-1.406  c-1.528-0.937-2.686-2.215-3.472-3.839C134.182,27.576,133.789,25.862,133.789,24.051 M136.601,24.095  c0,2.483,0.666,4.441,2.002,5.87c1.336,1.429,3.012,2.142,5.026,2.142c2.052,0,3.743-0.722,5.067-2.165  c1.327-1.444,1.991-3.49,1.991-6.141c0-1.679-0.285-3.143-0.85-4.395c-0.567-1.251-1.397-2.221-2.488-2.91  c-1.094-0.687-2.32-1.033-3.676-1.033c-1.933,0-3.594,0.663-4.986,1.991S136.601,20.992,136.601,24.095" fill="#ffffff"/>
<g>
	<path d="M151.828,11.384V9.825h12.244v1.559H151.828z" fill="#ffffff"/>
</g>
<path d="M216.772,24.051c0-3.42,0.917-6.097,2.756-8.033c1.837-1.935,4.206-2.902,7.113-2.902c1.9,0,3.618,0.454,5.143,1.362  c1.528,0.911,2.692,2.177,3.495,3.804c0.8,1.624,1.202,3.469,1.202,5.53c0,2.09-0.422,3.961-1.266,5.611  c-0.844,1.647-2.037,2.896-3.586,3.746c-1.545,0.847-3.213,1.272-5.003,1.272c-1.941,0-3.676-0.469-5.201-1.406  c-1.528-0.937-2.686-2.215-3.472-3.839C217.165,27.576,216.772,25.862,216.772,24.051 M219.584,24.095  c0,2.483,0.666,4.441,2.002,5.87c1.336,1.429,3.012,2.142,5.026,2.142c2.052,0,3.743-0.722,5.067-2.165  c1.327-1.444,1.991-3.49,1.991-6.141c0-1.679-0.285-3.143-0.85-4.395c-0.567-1.251-1.397-2.221-2.488-2.91  c-1.094-0.687-2.32-1.033-3.679-1.033c-1.93,0-3.592,0.663-4.983,1.991S219.584,20.992,219.584,24.095" fill="#ffffff"/>
<polygon points="72.888,106.065 72.888,85.456 75.615,85.456 75.615,93.92 86.325,93.92 86.325,85.456 89.055,85.456   89.055,106.065 86.325,106.065 86.325,96.35 75.615,96.35 75.615,106.065 " fill="#ffffff"/>
<path d="M92.766,96.027c0-3.42,0.917-6.097,2.756-8.033c1.837-1.935,4.206-2.902,7.113-2.902c1.9,0,3.618,0.454,5.143,1.362  c1.528,0.911,2.692,2.177,3.495,3.804c0.8,1.624,1.202,3.469,1.202,5.53c0,2.09-0.422,3.961-1.266,5.611  c-0.844,1.647-2.037,2.896-3.586,3.746c-1.545,0.847-3.213,1.272-5.003,1.272c-1.941,0-3.673-0.469-5.201-1.406  c-1.528-0.937-2.686-2.218-3.472-3.839C93.159,99.551,92.766,97.837,92.766,96.027 M95.578,96.07c0,2.483,0.666,4.441,2.002,5.868  c1.336,1.432,3.012,2.145,5.026,2.145c2.052,0,3.743-0.722,5.067-2.165c1.327-1.444,1.991-3.49,1.991-6.141  c0-1.679-0.285-3.143-0.85-4.395c-0.567-1.251-1.397-2.221-2.488-2.91c-1.094-0.687-2.32-1.033-3.676-1.033  c-1.933,0-3.594,0.663-4.986,1.991C96.273,90.753,95.578,92.968,95.578,96.07" fill="#ffffff"/>
<polygon points="70.309,11.364 70.309,27.544 59.482,11.364 56.688,11.364 56.688,31.974 59.302,31.974 59.302,15.78 70.126,31.974   72.923,31.974 72.923,11.364 " fill="#ffffff"/>
<path d="M86.922,30.134c-0.937,0.795-1.837,1.359-2.704,1.685c-0.867,0.329-1.799,0.492-2.791,0.492  c-1.641,0-2.902-0.399-3.781-1.202c-0.882-0.8-1.321-1.825-1.321-3.071c0-0.731,0.166-1.397,0.498-2.002  c0.332-0.605,0.768-1.091,1.307-1.455c0.538-0.367,1.147-0.643,1.822-0.83c0.495-0.131,1.246-0.259,2.25-0.381  c2.04-0.242,3.545-0.533,4.511-0.87c0.009-0.346,0.014-0.568,0.014-0.661c0-1.03-0.239-1.758-0.716-2.18  c-0.649-0.57-1.609-0.856-2.884-0.856c-1.19,0-2.069,0.207-2.634,0.626c-0.567,0.416-0.987,1.155-1.26,2.212l-2.474-0.338  c0.227-1.056,0.597-1.912,1.112-2.564c0.515-0.652,1.26-1.153,2.235-1.505c0.975-0.352,2.104-0.527,3.388-0.527  c1.275,0,2.311,0.151,3.106,0.451c0.797,0.3,1.382,0.675,1.758,1.129c0.375,0.457,0.637,1.03,0.789,1.723  c0.084,0.431,0.125,1.208,0.125,2.334v3.373c0,2.352,0.055,3.842,0.163,4.465c0.108,0.623,0.32,1.219,0.637,1.79h-2.643  C87.167,31.45,86.998,30.836,86.922,30.134 M86.713,24.482c-0.92,0.376-2.296,0.693-4.133,0.955  c-1.039,0.151-1.775,0.32-2.206,0.506c-0.431,0.189-0.765,0.463-0.998,0.824c-0.236,0.361-0.352,0.763-0.352,1.202  c0,0.675,0.256,1.237,0.765,1.688c0.512,0.448,1.257,0.672,2.244,0.672c0.972,0,1.839-0.212,2.599-0.637  c0.76-0.428,1.318-1.01,1.674-1.752c0.271-0.571,0.408-1.415,0.408-2.529V24.482z" fill="#ffffff"/>
<g>
	<path d="M86.68,11.219V6.897h-4.289V5.091h4.289V0.802h1.827v4.289h4.29v1.806h-4.29v4.321H86.68z" fill="#ffffff"/>
</g>
<line style="fill:none;stroke:#ffffff;stroke-width:1.8656;stroke-linecap:round;stroke-linejoin:bevel;stroke-miterlimit:10;" x1="160.149" y1="33.688" x2="185.29" y2="48.202"/>
<line style="fill:none;stroke:#ffffff;stroke-width:1.8656;stroke-linecap:round;stroke-linejoin:bevel;stroke-miterlimit:10;" x1="180.982" y1="45.714" x2="208.276" y2="29.954"/>
<line style="fill:none;stroke:#ffffff;stroke-width:1.8656;stroke-linecap:round;stroke-linejoin:bevel;stroke-miterlimit:10;" x1="185.29" y1="53.179" x2="212.584" y2="37.419"/>
<line style="fill:none;stroke:#ffffff;stroke-width:1.8656;stroke-linecap:round;stroke-linejoin:bevel;stroke-miterlimit:10;" x1="185.29" y1="48.202" x2="185.29" y2="96.094"/>
<line style="fill:none;stroke:#ffffff;stroke-width:1.8656;stroke-linecap:round;stroke-linejoin:bevel;stroke-miterlimit:10;" x1="185.29" y1="96.094" x2="226.764" y2="120.038"/>
<line style="fill:none;stroke:#ffffff;stroke-width:1.8656;stroke-linecap:round;stroke-linejoin:bevel;stroke-miterlimit:10;" x1="185.29" y1="106.048" x2="218.143" y2="125.015"/>
<line style="fill:none;stroke:#ffffff;stroke-width:1.8656;stroke-linecap:round;stroke-linejoin:bevel;stroke-miterlimit:10;" x1="226.767" y1="120.038" x2="226.767" y2="167.93"/>
<line style="fill:none;stroke:#ffffff;stroke-width:1.8656;stroke-linecap:round;stroke-linejoin:bevel;stroke-miterlimit:10;" x1="226.767" y1="167.93" x2="185.293" y2="191.874"/>
<line style="fill:none;stroke:#ffffff;stroke-width:1.8656;stroke-linecap:round;stroke-linejoin:bevel;stroke-miterlimit:10;" x1="218.146" y1="162.953" x2="185.293" y2="181.92"/>
<line style="fill:none;stroke:#ffffff;stroke-width:1.8656;stroke-linecap:round;stroke-linejoin:bevel;stroke-miterlimit:10;" x1="185.29" y1="191.874" x2="143.816" y2="167.93"/>
<line style="fill:none;stroke:#ffffff;stroke-width:1.8656;stroke-linecap:round;stroke-linejoin:bevel;stroke-miterlimit:10;" x1="143.816" y1="167.93" x2="143.816" y2="120.038"/>
<line style="fill:none;stroke:#ffffff;stroke-width:1.8656;stroke-linecap:round;stroke-linejoin:bevel;stroke-miterlimit:10;" x1="152.436" y1="162.953" x2="152.436" y2="125.015"/>
<line style="fill:none;stroke:#ffffff;stroke-width:1.8656;stroke-linecap:round;stroke-linejoin:bevel;stroke-miterlimit:10;" x1="185.29" y1="96.094" x2="143.816" y2="120.038"/>
<line style="fill:none;stroke:#ffffff;stroke-width:1.8656;stroke-linecap:round;stroke-linejoin:bevel;stroke-miterlimit:10;" x1="143.816" y1="120.038" x2="118.675" y2="105.524"/>
<g>
</g>
<g>
</g>
<g>
</g>
<g>
</g>
<g>
</g>
<g>
</g>
<g>
</g>
<g>
</g>
<g>
</g>
<g>
</g>
<g>
</g>
<g>
</g>
<g>
</g>
<g>
</g>
<g>
</g>
</svg>